REM DIRINDEX 1\2,1\4,1\5,1\6,1\7,1\3\8,1\3\9,1\3\10
REM DIRNAME cjc113,folder01,folder02,folder03,folder04,folder05,folder06,folder07,folder08,folder09
TITLE ""
FILE "DB4500_5th_1A_22.mp3" MP3
  TRACK 01 AUDIO
    TITLE "8:cjc113_0847"
    INDEX 01 00:00:00
  TRACK 02 AUDIO
    TITLE "0:"
    INDEX 01 00:01:11
  TRACK 03 AUDIO
    TITLE "9:cjc113_0848"
    INDEX 01 00:01:36
  TRACK 04 AUDIO
    TITLE "0:"
    INDEX 01 00:02:45
  TRACK 05 AUDIO
    TITLE "10:cjc113_0849"
    INDEX 01 00:02:63
  TRACK 06 AUDIO
    TITLE "0:"
    INDEX 01 00:06:08
  TRACK 07 AUDIO
    TITLE "10:cjc113_0850"
    INDEX 01 00:06:39
  TRACK 08 AUDIO
    TITLE "0:"
    INDEX 01 00:09:06
  TRACK 09 AUDIO
    TITLE "8:cjc113_0851"
    INDEX 01 00:09:51
  TRACK 10 AUDIO
    TITLE "0:"
    INDEX 01 00:10:63
  TRACK 11 AUDIO
    TITLE "9:cjc113_0852"
    INDEX 01 00:11:11
  TRACK 12 AUDIO
    TITLE "0:"
    INDEX 01 00:12:20
  TRACK 13 AUDIO
    TITLE "10:cjc113_0853"
    INDEX 01 00:12:44
  TRACK 14 AUDIO
    TITLE "0:"
    INDEX 01 00:15:46
  TRACK 15 AUDIO
    TITLE "10:cjc113_0854"
    INDEX 01 00:16:28
  TRACK 16 AUDIO
    TITLE "0:"
    INDEX 01 00:18:60
  TRACK 17 AUDIO
    TITLE "10:cjc113_0855"
    INDEX 01 00:19:28
  TRACK 18 AUDIO
    TITLE "0:"
    INDEX 01 00:22:36
  TRACK 19 AUDIO
    TITLE "8:cjc113_0856"
    INDEX 01 00:23:08
  TRACK 20 AUDIO
    TITLE "0:"
    INDEX 01 00:24:18
  TRACK 21 AUDIO
    TITLE "9:cjc113_0857"
    INDEX 01 00:24:41
  TRACK 22 AUDIO
    TITLE "0:"
    INDEX 01 00:25:54
  TRACK 23 AUDIO
    TITLE "10:cjc113_0858"
    INDEX 01 00:26:01
  TRACK 24 AUDIO
    TITLE "0:"
    INDEX 01 00:28:37
  TRACK 25 AUDIO
    TITLE "8:cjc113_0859"
    INDEX 01 00:29:11
  TRACK 26 AUDIO
    TITLE "0:"
    INDEX 01 00:30:44
  TRACK 27 AUDIO
    TITLE "9:cjc113_0860"
    INDEX 01 00:30:69
  TRACK 28 AUDIO
    TITLE "0:"
    INDEX 01 00:32:23
  TRACK 29 AUDIO
    TITLE "10:cjc113_0861"
    INDEX 01 00:32:39
  TRACK 30 AUDIO
    TITLE "0:"
    INDEX 01 00:36:01
  TRACK 31 AUDIO
    TITLE "8:cjc113_0862"
    INDEX 01 00:36:52
  TRACK 32 AUDIO
    TITLE "0:"
    INDEX 01 00:37:69
  TRACK 33 AUDIO
    TITLE "9:cjc113_0863"
    INDEX 01 00:38:12
  TRACK 34 AUDIO
    TITLE "0:"
    INDEX 01 00:39:27
  TRACK 35 AUDIO
    TITLE "10:cjc113_0864"
    INDEX 01 00:39:47
  TRACK 36 AUDIO
    TITLE "0:"
    INDEX 01 00:42:10
  TRACK 37 AUDIO
    TITLE "8:cjc113_0865"
    INDEX 01 00:42:55
  TRACK 38 AUDIO
    TITLE "0:"
    INDEX 01 00:43:74
  TRACK 39 AUDIO
    TITLE "9:cjc113_0866"
    INDEX 01 00:44:18
  TRACK 40 AUDIO
    TITLE "0:"
    INDEX 01 00:46:66
  TRACK 41 AUDIO
    TITLE "10:cjc113_0867"
    INDEX 01 00:47:09
  TRACK 42 AUDIO
    TITLE "0:"
    INDEX 01 00:49:65
  TRACK 43 AUDIO
    TITLE "10:cjc113_0868"
    INDEX 01 00:50:33
  TRACK 44 AUDIO
    TITLE "0:"
    INDEX 01 00:54:32
  TRACK 45 AUDIO
    TITLE "8:cjc113_0869"
    INDEX 01 00:54:74
  TRACK 46 AUDIO
    TITLE "0:"
    INDEX 01 00:56:16
  TRACK 47 AUDIO
    TITLE "9:cjc113_0870"
    INDEX 01 00:56:37
  TRACK 48 AUDIO
    TITLE "0:"
    INDEX 01 00:59:26
  TRACK 49 AUDIO
    TITLE "10:cjc113_0871"
    INDEX 01 00:59:45
  TRACK 50 AUDIO
    TITLE "0:"
    INDEX 01 01:02:16
  TRACK 51 AUDIO
    TITLE "10:cjc113_0872"
    INDEX 01 01:02:42
  TRACK 52 AUDIO
    TITLE "0:"
    INDEX 01 01:07:64
  TRACK 53 AUDIO
    TITLE "8:cjc113_0873"
    INDEX 01 01:08:29
  TRACK 54 AUDIO
    TITLE "0:"
    INDEX 01 01:09:40
  TRACK 55 AUDIO
    TITLE "9:cjc113_0874"
    INDEX 01 01:09:61
  TRACK 56 AUDIO
    TITLE "0:"
    INDEX 01 01:12:30
  TRACK 57 AUDIO
    TITLE "10:cjc113_0875"
    INDEX 01 01:12:46
  TRACK 58 AUDIO
    TITLE "0:"
    INDEX 01 01:16:18
  TRACK 59 AUDIO
    TITLE "8:cjc113_0876"
    INDEX 01 01:16:61
  TRACK 60 AUDIO
    TITLE "0:"
    INDEX 01 01:17:71
  TRACK 61 AUDIO
    TITLE "9:cjc113_0877"
    INDEX 01 01:18:17
  TRACK 62 AUDIO
    TITLE "0:"
    INDEX 01 01:20:51
  TRACK 63 AUDIO
    TITLE "10:cjc113_0878"
    INDEX 01 01:20:71
  TRACK 64 AUDIO
    TITLE "0:"
    INDEX 01 01:25:17
  TRACK 65 AUDIO
    TITLE "8:cjc113_0879"
    INDEX 01 01:25:62
  TRACK 66 AUDIO
    TITLE "0:"
    INDEX 01 01:26:68
  TRACK 67 AUDIO
    TITLE "9:cjc113_0880"
    INDEX 01 01:27:14
  TRACK 68 AUDIO
    TITLE "0:"
    INDEX 01 01:29:62
  TRACK 69 AUDIO
    TITLE "10:cjc113_0881"
    INDEX 01 01:30:05
  TRACK 70 AUDIO
    TITLE "0:"
    INDEX 01 01:33:13
  TRACK 71 AUDIO
    TITLE "8:cjc113_0882"
    INDEX 01 01:33:56
  TRACK 72 AUDIO
    TITLE "0:"
    INDEX 01 01:34:57
  TRACK 73 AUDIO
    TITLE "9:cjc113_0883"
    INDEX 01 01:35:02
  TRACK 74 AUDIO
    TITLE "0:"
    INDEX 01 01:37:03
  TRACK 75 AUDIO
    TITLE "10:cjc113_0884"
    INDEX 01 01:37:22
  TRACK 76 AUDIO
    TITLE "0:"
    INDEX 01 01:40:48
